<?xml version="1.0" encoding="UTF-8" standalone="no"?>
<!DOCTYPE svg PUBLIC "-//W3C//DTD SVG 1.1//EN" "http://www.w3.org/Graphics/SVG/1.1/DTD/svg11.dtd">
<svg xmlns="http://www.w3.org/2000/svg" version="1.1" viewBox="0.00 0.00 1388.00 1510.00">
<path fill="#000000" d="
  M 533.06 0.00
  L 537.61 0.00
  C 557.51 3.72 548.99 35.23 544.22 48.51
  Q 526.09 98.97 502.45 147.14
  Q 467.64 218.09 427.32 286.07
  C 390.54 348.09 358.44 417.90 369.51 491.67
  C 379.55 558.60 417.75 616.21 422.92 684.44
  Q 428.50 758.12 410.03 830.26
  C 401.21 864.69 389.72 899.27 371.93 928.63
  C 347.53 968.89 309.42 983.73 264.58 989.40
  C 221.66 994.84 178.85 1000.99 135.92 1006.31
  C 121.31 1008.12 102.85 1010.57 88.77 1006.24
  C 71.46 1000.91 80.73 979.01 85.63 968.56
  Q 92.65 953.57 101.12 939.35
  C 125.36 898.63 151.77 859.37 176.97 819.26
  Q 199.23 783.82 207.48 742.75
  C 214.50 707.84 216.73 671.72 217.37 636.18
  C 218.42 577.94 217.94 519.76 223.33 461.68
  C 227.08 421.31 233.36 386.58 248.07 349.56
  C 268.72 297.57 300.67 246.69 334.34 200.82
  Q 402.04 108.58 484.21 28.97
  C 497.30 16.29 514.68 3.12 533.06 0.00
  Z"
/>
<path fill="#000000" d="
  M 844.31 0.00
  L 848.56 0.00
  C 868.81 4.15 886.44 17.85 900.81 31.95
  C 964.67 94.63 1025.46 165.75 1075.67 241.82
  C 1108.26 291.21 1138.87 347.73 1150.41 405.82
  C 1165.69 482.75 1162.30 567.52 1164.36 643.94
  C 1165.29 678.51 1167.71 713.69 1175.17 747.54
  C 1181.06 774.30 1191.69 799.42 1206.52 822.49
  Q 1232.14 862.36 1257.76 902.24
  Q 1279.13 935.50 1290.45 957.05
  C 1296.07 967.74 1309.13 992.23 1298.99 1002.54
  C 1288.46 1013.23 1250.17 1007.06 1236.26 1005.15
  Q 1173.55 996.53 1110.75 988.51
  Q 1096.69 986.72 1077.66 981.14
  C 1033.51 968.21 1008.74 935.03 992.25 894.00
  C 965.67 827.86 953.02 755.75 958.58 684.81
  C 962.29 637.63 981.31 594.01 997.22 549.74
  C 1011.74 509.35 1018.39 468.09 1011.25 425.50
  C 1003.77 380.89 984.60 337.79 961.60 298.86
  Q 932.89 250.25 906.31 200.44
  C 881.35 153.64 858.22 105.47 839.83 55.68
  C 835.34 43.52 821.17 3.25 844.31 0.00
  Z"
/>
<path fill="#d41e24" d="
  M 553.63 627.96
  C 516.50 590.08 479.05 545.49 457.74 497.51
  C 444.19 467.00 435.24 428.06 446.41 395.35
  C 455.31 369.31 474.56 347.91 498.68 334.66
  C 526.83 319.19 558.57 315.25 590.25 320.53
  C 635.66 328.11 663.58 360.36 683.87 398.68
  A 0.55 0.55 0.0 0 0 684.85 398.68
  Q 695.13 379.22 709.04 361.82
  C 735.16 329.14 770.23 316.91 811.75 318.52
  C 874.58 320.95 931.08 368.08 926.99 434.47
  C 924.13 481.02 900.24 524.57 872.74 561.02
  Q 846.86 595.32 815.47 627.47
  C 773.20 670.75 729.53 710.18 684.72 749.48
  Q 684.33 749.83 683.94 749.48
  C 639.25 710.26 595.23 670.41 553.63 627.96
  Z"
/>
<path fill="#000000" d="
  M 0.00 1173.92
  L 0.00 1162.95
  C 2.14 1125.11 20.55 1090.61 61.74 1085.38
  C 73.85 1083.85 86.67 1084.97 97.49 1090.47
  Q 97.92 1090.69 98.03 1091.17
  L 100.86 1103.98
  A 0.32 0.31 -82.7 0 1 100.41 1104.33
  C 62.47 1085.15 25.31 1104.44 16.85 1145.53
  Q 11.65 1170.79 17.94 1195.81
  C 28.82 1239.07 69.86 1243.87 104.94 1226.82
  Q 105.62 1226.49 105.39 1227.22
  L 100.64 1242.26
  Q 100.51 1242.69 100.10 1242.88
  C 86.91 1249.14 70.54 1250.69 56.35 1249.15
  C 16.26 1244.80 1.28 1209.58 0.00 1173.92
  Z"
/>
<path fill="#000000" d="
  M 550.54 1234.78
  Q 548.93 1236.04 547.43 1237.45
  C 535.98 1248.26 520.82 1251.48 505.95 1246.81
  C 488.67 1241.38 479.70 1225.48 476.36 1208.33
  C 472.63 1189.19 473.82 1168.31 483.04 1150.80
  C 490.52 1136.60 503.71 1126.66 520.25 1126.68
  C 531.23 1126.69 544.00 1130.86 549.84 1140.91
  A 0.36 0.35 30.2 0 0 550.50 1140.74
  L 550.50 1086.91
  A 0.65 0.65 0.0 0 1 551.15 1086.26
  L 562.25 1086.25
  A 0.75 0.75 0.0 0 1 563.00 1087.00
  L 563.00 1247.09
  A 0.40 0.40 0.0 0 1 562.60 1247.49
  L 551.32 1247.50
  Q 550.89 1247.50 550.90 1247.07
  L 551.05 1235.03
  Q 551.05 1234.38 550.54 1234.78
  Z
  M 525.58 1137.22
  C 477.96 1130.84 474.39 1226.46 512.23 1235.72
  Q 535.58 1241.43 549.92 1223.11
  A 2.65 2.64 64.3 0 0 550.49 1221.47
  Q 550.53 1196.16 550.47 1170.59
  C 550.43 1153.59 544.13 1139.71 525.58 1137.22
  Z"
/>
<path fill="#000000" d="
  M 881.92 1105.08
  L 829.07 1163.34
  A 0.34 0.34 0.0 0 1 828.57 1163.34
  L 777.34 1106.26
  A 0.34 0.34 0.0 0 0 776.75 1106.49
  L 776.75 1247.16
  A 0.34 0.34 0.0 0 1 776.41 1247.50
  L 763.34 1247.50
  A 0.34 0.34 0.0 0 1 763.00 1247.16
  L 763.00 1086.89
  A 0.34 0.34 0.0 0 1 763.34 1086.55
  L 777.04 1086.49
  A 0.34 0.34 0.0 0 1 777.29 1086.60
  L 828.56 1144.18
  A 0.34 0.34 0.0 0 0 829.06 1144.18
  L 880.99 1086.60
  A 0.34 0.34 0.0 0 1 881.24 1086.49
  L 896.16 1086.52
  A 0.34 0.34 0.0 0 1 896.50 1086.86
  L 896.50 1247.16
  A 0.34 0.34 0.0 0 1 896.16 1247.50
  L 882.84 1247.50
  A 0.34 0.34 0.0 0 1 882.50 1247.16
  L 882.51 1105.31
  A 0.34 0.34 0.0 0 0 881.92 1105.08
  Z"
/>
<ellipse fill="#000000" cx="0.00" cy="0.00" transform="translate(1150.35,1098.75) rotate(0.5)" rx="7.82" ry="7.05"/>
<path fill="#000000" d="
  M 957.75 1247.26
  C 935.56 1243.79 922.69 1228.68 918.42 1207.31
  C 912.69 1178.65 918.93 1134.43 954.60 1127.49
  C 996.90 1119.25 1011.42 1156.74 1009.92 1191.07
  Q 1009.91 1191.50 1009.47 1191.50
  L 929.27 1191.50
  A 0.50 0.50 0.0 0 0 928.77 1191.98
  C 928.03 1212.58 938.36 1231.47 959.76 1235.68
  C 974.73 1238.62 993.17 1236.90 1005.72 1227.33
  A 0.28 0.28 0.0 0 1 1006.17 1227.59
  L 1004.62 1239.03
  A 1.94 1.93 79.4 0 1 1003.65 1240.46
  C 989.95 1248.21 973.28 1249.68 957.75 1247.26
  Z
  M 997.29 1180.26
  C 996.79 1164.21 990.52 1142.12 972.50 1137.98
  C 944.06 1131.43 930.09 1156.43 929.38 1180.61
  Q 929.37 1181.00 929.76 1181.00
  L 996.57 1181.00
  Q 997.31 1181.00 997.29 1180.26
  Z"
/>
<path fill="#000000" d="
  M 193.91 1232.73
  A 0.29 0.29 0.0 0 0 193.38 1232.54
  C 183.75 1246.10 167.21 1250.92 151.27 1248.74
  C 129.72 1245.79 119.93 1226.47 124.20 1206.34
  C 130.78 1175.29 167.58 1173.67 192.29 1177.27
  Q 193.17 1177.39 193.19 1176.51
  C 193.68 1157.48 194.92 1142.78 171.91 1138.62
  Q 152.06 1135.03 134.15 1145.72
  Q 133.71 1145.99 133.80 1145.48
  L 135.77 1134.51
  Q 135.86 1133.99 136.31 1133.72
  C 145.96 1127.91 158.36 1126.14 169.41 1126.95
  C 186.39 1128.19 199.89 1135.03 204.24 1152.39
  C 205.46 1157.25 205.44 1162.81 205.48 1168.06
  Q 205.79 1207.53 205.78 1246.92
  A 0.58 0.57 -0.5 0 1 205.21 1247.49
  C 202.07 1247.52 194.03 1249.02 193.84 1244.25
  Q 193.61 1238.41 193.91 1232.73
  Z
  M 143.13 1231.38
  C 155.41 1243.15 176.21 1238.73 187.33 1228.84
  C 191.83 1224.85 193.26 1219.62 193.25 1213.24
  Q 193.25 1200.43 193.25 1187.87
  A 0.79 0.79 0.0 0 0 192.59 1187.09
  C 175.46 1184.28 144.15 1183.29 137.64 1204.92
  C 135.13 1213.25 136.27 1224.81 143.13 1231.38
  Z"
/>
<path fill="#000000" d="
  M 238.55 1160.38
  C 240.57 1174.54 264.00 1181.03 275.44 1185.55
  C 289.72 1191.20 299.88 1200.75 298.71 1217.11
  C 297.35 1236.20 282.79 1247.26 264.18 1248.58
  Q 244.06 1250.02 226.42 1240.44
  Q 225.83 1240.12 225.75 1239.46
  L 224.16 1226.77
  Q 224.06 1225.96 224.76 1226.39
  C 239.31 1235.44 259.31 1240.90 274.91 1233.69
  C 286.96 1228.12 290.01 1210.22 279.71 1201.57
  Q 275.90 1198.36 269.01 1195.58
  C 251.94 1188.69 229.86 1183.02 226.76 1162.51
  C 221.34 1126.63 267.53 1119.06 290.08 1133.92
  Q 290.53 1134.22 290.64 1134.75
  L 292.80 1145.73
  Q 292.98 1146.66 292.18 1146.17
  Q 273.83 1134.94 253.51 1139.48
  C 243.71 1141.67 237.14 1150.46 238.55 1160.38
  Z"
/>
<path fill="#000000" d="
  M 385.68 1232.83
  A 0.29 0.29 0.0 0 0 385.15 1232.64
  C 374.41 1247.22 356.09 1251.79 339.02 1247.97
  C 317.38 1243.14 310.02 1217.89 317.93 1199.43
  C 328.44 1174.93 362.15 1173.89 384.12 1177.32
  A 0.76 0.76 0.0 0 0 385.00 1176.57
  C 385.07 1159.77 387.16 1142.92 365.74 1139.02
  Q 343.62 1134.99 325.87 1145.69
  Q 325.46 1145.94 325.55 1145.46
  L 327.58 1134.37
  Q 327.67 1133.91 328.07 1133.68
  C 348.89 1121.96 388.15 1122.83 395.78 1151.40
  Q 397.19 1156.68 397.29 1171.29
  C 397.41 1190.15 398.20 1216.00 397.41 1246.91
  Q 397.39 1247.50 396.81 1247.50
  C 393.48 1247.51 385.64 1249.07 385.51 1244.00
  Q 385.35 1238.29 385.68 1232.83
  Z
  M 329.17 1221.16
  C 334.55 1245.56 373.21 1241.61 383.12 1223.54
  Q 384.96 1220.17 384.98 1217.48
  Q 385.07 1202.75 384.97 1187.80
  Q 384.96 1187.23 384.40 1187.13
  C 361.22 1183.00 321.28 1185.34 329.17 1221.16
  Z"
/>
<path fill="#000000" d="
  M 634.24 1248.76
  C 609.24 1247.98 593.26 1235.37 588.63 1210.42
  C 582.61 1177.94 588.34 1131.49 630.08 1127.23
  C 672.38 1122.92 684.51 1157.40 682.95 1192.25
  C 681.65 1221.47 667.89 1249.81 634.24 1248.76
  Z
  M 598.81 1185.47
  C 597.93 1204.14 601.34 1230.53 623.17 1236.63
  C 645.24 1242.81 663.12 1231.61 668.45 1209.93
  Q 673.39 1189.85 669.41 1169.17
  C 665.36 1148.15 653.91 1134.91 630.20 1137.63
  C 605.45 1140.46 599.77 1164.92 598.81 1185.47
  Z"
/>
<path fill="#000000" d="
  M 1045.25 1144.59
  A 0.27 0.27 0.0 0 0 1045.76 1144.70
  C 1054.29 1127.46 1075.74 1123.64 1092.76 1128.76
  C 1111.04 1134.25 1115.95 1149.86 1115.98 1167.10
  Q 1116.03 1206.86 1115.99 1247.24
  A 0.76 0.76 0.0 0 1 1115.23 1248.00
  L 1104.75 1248.00
  A 0.77 0.76 0.0 0 1 1103.98 1247.24
  Q 1104.03 1207.10 1104.01 1166.75
  C 1104.00 1145.47 1093.57 1136.29 1072.74 1137.48
  C 1054.67 1138.52 1045.69 1153.24 1045.54 1170.07
  Q 1045.20 1208.33 1045.24 1247.65
  A 0.34 0.34 0.0 0 1 1044.90 1247.99
  L 1033.75 1248.00
  A 0.50 0.50 0.0 0 1 1033.25 1247.50
  L 1033.25 1129.75
  Q 1033.25 1129.25 1033.75 1129.25
  L 1044.75 1129.25
  Q 1045.25 1129.25 1045.25 1129.75
  L 1045.25 1144.59
  Z"
/>
<path fill="#000000" d="
  M 1198.50 1144.35
  A 0.29 0.28 -30.9 0 0 1199.04 1144.48
  Q 1207.36 1129.45 1224.76 1127.21
  C 1241.12 1125.11 1259.23 1129.76 1265.92 1146.31
  C 1268.62 1152.98 1269.19 1160.54 1269.28 1168.76
  Q 1269.72 1208.14 1269.43 1247.51
  Q 1269.42 1248.00 1268.94 1248.00
  L 1257.82 1248.00
  Q 1257.24 1248.00 1257.24 1247.42
  Q 1257.24 1207.43 1257.31 1167.51
  C 1257.35 1145.44 1246.35 1135.01 1223.94 1137.72
  C 1205.14 1139.98 1198.58 1156.53 1198.54 1173.25
  Q 1198.46 1210.47 1198.51 1247.60
  A 0.39 0.39 0.0 0 1 1198.12 1247.99
  L 1187.13 1248.00
  Q 1186.50 1248.00 1186.50 1247.38
  L 1186.50 1129.87
  Q 1186.50 1129.25 1187.12 1129.25
  L 1198.00 1129.25
  Q 1198.50 1129.25 1198.50 1129.75
  L 1198.50 1144.35
  Z"
/>
<path fill="#000000" d="
  M 1388.00 1183.07
  L 1388.00 1193.55
  C 1386.59 1219.12 1374.48 1246.27 1345.32 1248.56
  C 1299.46 1252.15 1288.15 1214.25 1292.26 1177.26
  C 1295.03 1152.34 1306.32 1130.68 1333.48 1127.23
  C 1371.52 1122.40 1387.17 1150.01 1388.00 1183.07
  Z
  M 1304.73 1174.25
  C 1302.34 1193.34 1302.49 1229.42 1326.56 1236.17
  C 1359.63 1245.45 1374.55 1221.64 1375.77 1193.26
  C 1376.91 1166.73 1371.02 1133.56 1335.32 1137.59
  C 1315.52 1139.82 1306.98 1156.39 1304.73 1174.25
  Z"
/>
<rect fill="#000000" x="1144.50" y="1129.25" width="12.26" height="118.26" rx="0.61"/>
<path fill="#000000" d="
  M 659.50 1362.84
  A 0.16 0.16 0.0 0 0 659.80 1362.75
  L 659.73 1308.53
  Q 659.73 1307.84 660.41 1307.84
  L 671.67 1307.78
  A 0.58 0.58 0.0 0 1 672.25 1308.36
  L 672.25 1468.50
  A 0.50 0.50 0.0 0 1 671.75 1469.00
  L 660.73 1469.00
  A 0.52 0.51 -90.0 0 1 660.22 1468.48
  L 660.32 1456.57
  A 0.34 0.34 0.0 0 0 659.74 1456.34
  Q 645.99 1470.98 627.06 1470.29
  C 585.60 1468.77 579.23 1418.48 586.28 1388.26
  C 591.47 1366.01 608.36 1346.15 633.24 1348.47
  C 644.40 1349.51 653.61 1353.32 659.50 1362.84
  Z
  M 626.14 1358.81
  C 586.89 1365.00 586.03 1448.98 622.27 1457.47
  C 636.75 1460.86 650.93 1456.62 659.46 1444.16
  Q 659.74 1443.75 659.74 1443.26
  Q 659.78 1417.25 659.72 1391.25
  C 659.71 1384.07 658.71 1377.88 655.68 1372.07
  C 650.21 1361.60 637.48 1357.02 626.14 1358.81
  Z"
/>
<path fill="#000000" d="
  M 53.21 1469.00
  Q 52.60 1468.69 52.45 1468.03
  L 49.65 1455.82
  A 0.30 0.30 0.0 0 1 50.09 1455.49
  C 61.30 1461.34 74.94 1463.92 87.09 1459.38
  C 105.06 1452.66 106.20 1434.08 106.22 1417.71
  Q 106.28 1363.06 106.24 1308.62
  A 0.62 0.62 0.0 0 1 106.86 1308.00
  L 119.46 1308.00
  A 0.81 0.81 0.0 0 1 120.27 1308.81
  Q 120.26 1360.22 120.09 1412.00
  C 120.01 1434.41 119.32 1461.57 93.65 1470.87
  C 80.93 1475.48 65.61 1475.33 53.21 1469.00
  Z"
/>
<path fill="#000000" d="
  M 932.28 1310.34
  C 961.73 1318.11 967.87 1349.16 964.00 1375.49
  C 961.12 1395.19 948.67 1410.23 929.07 1415.00
  Q 923.26 1416.42 909.18 1416.49
  Q 895.85 1416.55 882.78 1416.48
  A 1.03 1.02 -89.7 0 0 881.75 1417.51
  L 881.76 1468.40
  A 0.60 0.60 0.0 0 1 881.16 1469.00
  L 868.63 1469.00
  Q 868.00 1469.00 868.00 1468.38
  L 868.00 1308.53
  A 0.53 0.53 0.0 0 1 868.52 1308.00
  Q 893.84 1307.95 919.25 1308.24
  Q 924.59 1308.31 932.28 1310.34
  Z
  M 949.70 1372.95
  C 953.95 1345.85 944.73 1320.99 913.25 1320.99
  Q 897.64 1320.99 882.50 1321.01
  A 0.75 0.75 0.0 0 0 881.75 1321.76
  L 881.75 1403.43
  A 0.39 0.39 0.0 0 0 882.14 1403.82
  Q 897.71 1403.70 912.41 1403.78
  C 932.69 1403.89 946.41 1393.93 949.70 1372.95
  Z"
/>
<path fill="#000000" d="
  M 151.85 1413.64
  C 150.88 1432.95 161.06 1452.49 181.07 1456.90
  C 196.87 1460.38 215.40 1458.58 228.77 1448.84
  A 0.26 0.26 0.0 0 1 229.18 1449.09
  L 227.51 1461.24
  Q 227.44 1461.74 226.99 1461.98
  C 203.36 1474.37 164.30 1474.21 148.59 1448.17
  C 138.31 1431.13 137.75 1407.15 142.04 1388.13
  C 147.68 1363.15 163.85 1346.27 191.10 1348.12
  C 224.90 1350.42 234.65 1384.23 232.74 1412.53
  Q 232.71 1413.00 232.24 1413.00
  L 152.52 1413.00
  Q 151.88 1413.00 151.85 1413.64
  Z
  M 207.02 1365.99
  C 196.42 1355.76 178.37 1356.35 167.81 1364.98
  C 157.50 1373.40 152.79 1388.76 152.39 1402.13
  A 0.36 0.36 0.0 0 0 152.75 1402.50
  L 219.90 1402.50
  A 0.32 0.31 -0.9 0 0 220.22 1402.18
  C 220.02 1389.05 216.52 1375.15 207.02 1365.99
  Z"
/>
<path fill="#000000" d="
  M 706.77 1413.71
  C 706.05 1433.06 716.09 1452.47 736.08 1456.88
  C 751.92 1460.38 770.14 1458.54 783.71 1448.99
  Q 784.25 1448.61 784.16 1449.26
  L 782.60 1460.99
  Q 782.53 1461.49 782.09 1461.74
  Q 771.21 1467.86 758.76 1469.29
  C 705.61 1475.42 688.10 1435.82 696.48 1390.31
  C 701.16 1364.92 718.37 1346.05 745.95 1347.95
  C 779.80 1350.29 789.73 1384.21 787.78 1412.50
  A 0.53 0.53 0.0 0 1 787.25 1413.00
  L 707.50 1413.00
  A 0.73 0.73 0.0 0 0 706.77 1413.71
  Z
  M 761.84 1365.66
  C 751.00 1355.88 733.29 1356.21 722.43 1365.35
  C 712.41 1373.77 707.80 1388.93 707.41 1402.13
  Q 707.39 1402.50 707.76 1402.50
  L 774.75 1402.50
  A 0.49 0.48 -90.0 0 0 775.23 1402.01
  C 775.12 1389.55 771.43 1374.31 761.84 1365.66
  Z"
/>
<path fill="#000000" d="
  M 1190.67 1510.00
  L 1187.69 1510.00
  C 1174.47 1509.34 1159.72 1507.24 1150.10 1497.23
  C 1137.65 1484.26 1142.34 1463.67 1157.56 1455.24
  A 0.52 0.52 0.0 0 0 1157.35 1454.26
  C 1147.57 1453.42 1142.48 1445.81 1143.73 1436.52
  C 1145.13 1426.23 1155.35 1421.24 1164.82 1420.88
  A 0.19 0.19 0.0 0 0 1164.91 1420.52
  C 1149.38 1411.37 1145.43 1393.85 1148.97 1376.93
  C 1153.72 1354.21 1171.29 1345.59 1193.48 1348.49
  C 1202.54 1349.68 1213.41 1354.73 1217.47 1363.36
  A 0.43 0.42 30.2 0 0 1218.28 1363.15
  C 1217.38 1352.56 1218.61 1349.92 1229.92 1350.88
  Q 1230.41 1350.92 1230.42 1351.42
  Q 1230.69 1368.23 1230.41 1385.01
  Q 1230.21 1397.47 1228.41 1403.24
  C 1222.99 1420.65 1207.20 1428.56 1189.36 1428.45
  C 1180.09 1428.39 1157.50 1426.55 1155.55 1436.37
  C 1153.33 1447.58 1175.68 1446.76 1183.60 1446.55
  C 1202.14 1446.06 1228.73 1446.53 1233.09 1470.26
  C 1238.16 1497.86 1213.90 1509.52 1190.67 1510.00
  Z
  M 1165.37 1407.39
  C 1176.61 1422.93 1202.57 1422.86 1213.32 1407.13
  C 1219.08 1398.70 1219.64 1385.99 1216.32 1376.23
  C 1211.14 1360.95 1194.92 1356.13 1180.10 1359.11
  C 1172.23 1360.69 1165.84 1364.75 1162.81 1372.06
  C 1158.54 1382.38 1158.45 1397.84 1165.37 1407.39
  Z
  M 1156.85 1468.81
  C 1150.54 1481.85 1158.56 1493.13 1171.35 1496.86
  C 1184.96 1500.84 1205.78 1500.75 1216.30 1490.31
  C 1225.11 1481.57 1223.18 1467.16 1211.98 1462.03
  C 1199.80 1456.45 1185.31 1457.69 1172.04 1457.75
  C 1165.59 1457.78 1159.42 1463.50 1156.85 1468.81
  Z"
/>
<path fill="#000000" d="
  M 269.75 1408.75
  C 256.33 1403.35 246.39 1392.42 247.38 1377.37
  C 249.43 1346.33 290.91 1341.69 311.25 1355.50
  Q 311.60 1355.73 311.68 1356.15
  L 313.95 1367.45
  Q 314.10 1368.16 313.48 1367.78
  Q 296.76 1357.46 277.24 1360.35
  C 265.98 1362.01 256.46 1372.31 260.03 1383.86
  C 262.26 1391.11 270.14 1396.46 277.04 1399.26
  C 295.84 1406.91 322.66 1412.96 319.71 1439.91
  C 317.73 1458.07 303.66 1468.62 285.80 1470.05
  Q 265.30 1471.69 247.41 1461.91
  Q 246.90 1461.63 246.83 1461.05
  L 245.26 1448.30
  A 0.34 0.34 0.0 0 1 245.78 1447.97
  C 257.87 1455.41 273.63 1460.45 287.87 1457.70
  C 299.53 1455.44 306.92 1448.82 306.96 1436.50
  C 306.99 1427.00 300.56 1421.71 292.59 1418.27
  Q 281.24 1413.37 269.75 1408.75
  Z"
/>
<path fill="#000000" d="
  M 502.02 1438.17
  C 504.15 1409.77 450.62 1417.23 443.57 1387.04
  C 439.01 1367.51 449.87 1353.20 468.79 1349.49
  C 480.20 1347.25 496.34 1348.05 506.15 1355.56
  Q 506.67 1355.96 506.79 1356.60
  L 508.94 1367.45
  Q 509.06 1368.06 508.53 1367.74
  Q 497.32 1360.80 483.33 1359.89
  C 471.18 1359.09 455.91 1362.83 454.57 1377.06
  C 451.70 1407.54 511.79 1398.39 514.74 1432.76
  C 516.50 1453.22 502.69 1467.61 482.78 1469.85
  Q 461.42 1472.24 442.39 1461.89
  Q 441.89 1461.62 441.82 1461.05
  L 440.26 1448.28
  A 0.34 0.34 0.0 0 1 440.77 1447.95
  Q 451.09 1454.28 462.72 1457.11
  C 477.70 1460.75 500.50 1458.40 502.02 1438.17
  Z"
/>
<path fill="#000000" d="
  M 998.25 1366.49
  A 0.29 0.29 0.0 0 0 998.80 1366.63
  C 1007.34 1350.98 1021.60 1343.62 1038.96 1351.18
  A 1.67 1.66 -82.4 0 1 1039.95 1352.48
  L 1041.49 1364.00
  Q 1041.58 1364.71 1040.97 1364.33
  Q 1033.63 1359.79 1024.00 1360.29
  C 1005.68 1361.22 998.43 1378.28 998.35 1394.44
  Q 998.16 1431.48 998.28 1468.46
  A 0.54 0.54 0.0 0 1 997.74 1469.00
  L 986.75 1469.00
  Q 986.25 1469.00 986.25 1468.50
  L 986.25 1351.25
  Q 986.25 1350.75 986.75 1350.75
  L 997.75 1350.75
  Q 998.25 1350.75 998.25 1351.25
  L 998.25 1366.49
  Z"
/>
<path fill="#000000" d="
  M 1111.20 1454.50
  A 0.30 0.30 0.0 0 0 1110.66 1454.32
  C 1095.29 1475.60 1054.09 1478.30 1043.31 1451.17
  C 1039.08 1440.51 1039.94 1426.80 1045.74 1416.97
  C 1058.29 1395.74 1089.19 1396.16 1110.20 1398.74
  Q 1110.72 1398.81 1110.73 1398.28
  C 1111.00 1386.41 1112.73 1371.23 1101.22 1364.06
  C 1095.81 1360.69 1088.45 1359.62 1081.73 1359.34
  Q 1065.65 1358.66 1051.78 1367.25
  Q 1051.28 1367.57 1051.36 1366.98
  C 1051.66 1364.79 1052.72 1355.52 1054.46 1354.63
  C 1076.38 1343.37 1114.00 1344.91 1121.49 1373.14
  Q 1123.00 1378.82 1123.00 1393.01
  Q 1122.99 1430.65 1123.01 1468.30
  Q 1123.01 1468.82 1122.50 1468.86
  C 1119.20 1469.15 1111.70 1470.28 1111.52 1466.17
  Q 1111.27 1460.25 1111.20 1454.50
  Z
  M 1053.99 1435.73
  C 1055.36 1464.57 1087.86 1464.95 1104.56 1450.58
  C 1109.40 1446.41 1110.74 1441.03 1110.76 1434.29
  Q 1110.79 1421.88 1110.73 1409.32
  Q 1110.73 1408.76 1110.18 1408.66
  C 1090.32 1405.08 1052.55 1405.52 1053.99 1435.73
  Z"
/>
<path fill="#000000" d="
  M 1319.14 1454.35
  C 1310.05 1467.09 1295.60 1471.45 1280.50 1470.54
  C 1263.08 1469.49 1251.20 1458.48 1249.53 1440.50
  C 1245.66 1398.95 1289.32 1394.80 1318.44 1398.79
  Q 1319.19 1398.89 1319.21 1398.13
  C 1319.58 1378.83 1320.86 1363.61 1297.19 1360.01
  C 1284.34 1358.06 1271.13 1360.11 1260.13 1367.48
  A 0.25 0.25 0.0 0 1 1259.75 1367.23
  L 1261.81 1355.98
  A 1.03 1.00 -11.6 0 1 1262.27 1355.31
  C 1271.96 1349.22 1285.34 1347.54 1296.46 1348.53
  C 1313.10 1350.01 1326.01 1357.01 1330.29 1373.89
  C 1331.47 1378.51 1331.72 1384.83 1331.72 1389.86
  Q 1331.78 1428.94 1331.74 1468.35
  A 0.63 0.63 0.0 0 1 1331.12 1468.98
  C 1328.12 1469.03 1320.25 1470.48 1319.99 1465.93
  Q 1319.71 1460.87 1319.73 1455.80
  Q 1319.73 1455.40 1319.93 1455.06
  Q 1320.18 1454.64 1319.95 1454.34
  A 0.51 0.50 43.9 0 0 1319.14 1454.35
  Z
  M 1263.49 1427.59
  C 1253.29 1470.90 1319.35 1467.42 1319.26 1435.61
  Q 1319.22 1422.56 1319.27 1409.86
  A 1.34 1.33 4.9 0 0 1318.16 1408.55
  C 1301.00 1405.71 1268.82 1404.94 1263.49 1427.59
  Z"
/>
<path fill="#000000" d="
  M 409.99 1453.90
  A 0.21 0.21 0.0 0 0 409.61 1453.78
  Q 400.49 1467.00 384.51 1469.59
  C 375.16 1471.10 364.23 1470.60 355.94 1466.55
  C 341.98 1459.75 339.29 1446.02 339.27 1431.30
  Q 339.22 1391.28 339.26 1351.25
  Q 339.26 1350.75 339.77 1350.75
  L 350.73 1350.75
  Q 351.25 1350.75 351.25 1351.26
  Q 351.26 1392.26 351.22 1433.25
  Q 351.19 1451.03 364.76 1456.84
  C 378.65 1462.79 401.89 1457.55 408.19 1442.06
  Q 409.50 1438.85 409.50 1433.14
  Q 409.50 1392.16 409.50 1351.27
  A 0.52 0.52 0.0 0 1 410.02 1350.75
  L 421.00 1350.75
  A 0.75 0.75 0.0 0 1 421.75 1351.50
  L 421.75 1468.24
  A 0.74 0.74 0.0 0 1 421.02 1468.98
  C 418.48 1469.02 411.86 1469.88 410.52 1467.01
  C 409.28 1464.34 410.00 1457.06 409.99 1453.90
  Z"
/>
</svg>
